<?xml version="1.0" encoding="UTF-8" standalone="no"?>
<!DOCTYPE svg PUBLIC "-//W3C//DTD SVG 1.1//EN" "http://www.w3.org/Graphics/SVG/1.1/DTD/svg11.dtd">
<!-- Created with Vectornator (http://vectornator.io/) -->
<svg height="100%" stroke-miterlimit="10" style="fill-rule:nonzero;clip-rule:evenodd;stroke-linecap:round;stroke-linejoin:round;" version="1.1" viewBox="0 0 2360 1640" width="100%" xml:space="preserve" xmlns="http://www.w3.org/2000/svg" xmlns:vectornator="http://vectornator.io" xmlns:xlink="http://www.w3.org/1999/xlink">
<defs/>
<g id="Layer-1" vectornator:layerName="Layer 1">
<g opacity="1" vectornator:layerName="Group 1">
<path d="M412.146 470.631C414.434 470.631 416.579 471.291 418.581 472.611C420.583 473.931 422.2 475.713 423.432 477.957C424.664 480.201 425.28 482.709 425.28 485.481C425.28 488.209 424.664 490.695 423.432 492.939C422.2 495.183 420.583 496.976 418.581 498.318C416.579 499.66 414.434 500.331 412.146 500.331L400.002 500.331L400.662 499.143L400.662 512.805C400.662 513.949 400.31 514.906 399.606 515.676C398.902 516.446 397.978 516.831 396.834 516.831C395.734 516.831 394.832 516.446 394.128 515.676C393.424 514.906 393.072 513.949 393.072 512.805L393.072 474.657C393.072 473.513 393.457 472.556 394.227 471.786C394.997 471.016 395.954 470.631 397.098 470.631L412.146 470.631ZM412.146 492.807C412.982 492.807 413.796 492.455 414.588 491.751C415.38 491.047 416.04 490.134 416.568 489.012C417.096 487.89 417.36 486.713 417.36 485.481C417.36 484.205 417.096 483.017 416.568 481.917C416.04 480.817 415.38 479.926 414.588 479.244C413.796 478.562 412.982 478.221 412.146 478.221L399.87 478.221L400.662 477.033L400.662 493.863L399.936 492.807L412.146 492.807Z" fill="#bc6c25" fill-rule="nonzero" opacity="1" stroke="none"/>
<path d="M457.163 480.201C458.307 480.201 459.253 480.575 460.001 481.323C460.749 482.071 461.123 483.039 461.123 484.227L461.123 512.145C461.123 513.289 460.749 514.246 460.001 515.016C459.253 515.786 458.307 516.171 457.163 516.171C456.019 516.171 455.073 515.786 454.325 515.016C453.577 514.246 453.203 513.289 453.203 512.145L453.203 508.911L454.655 509.505C454.655 510.077 454.347 510.77 453.731 511.584C453.115 512.398 452.279 513.201 451.223 513.993C450.167 514.785 448.924 515.456 447.494 516.006C446.064 516.556 444.513 516.831 442.841 516.831C439.805 516.831 437.055 516.05 434.591 514.488C432.127 512.926 430.18 510.77 428.75 508.02C427.32 505.27 426.605 502.113 426.605 498.549C426.605 494.941 427.32 491.762 428.75 489.012C430.18 486.262 432.105 484.106 434.525 482.544C436.945 480.982 439.629 480.201 442.577 480.201C444.469 480.201 446.207 480.487 447.791 481.059C449.375 481.631 450.75 482.357 451.916 483.237C453.082 484.117 453.984 485.008 454.622 485.91C455.26 486.812 455.579 487.571 455.579 488.187L453.203 489.045L453.203 484.227C453.203 483.083 453.577 482.126 454.325 481.356C455.073 480.586 456.019 480.201 457.163 480.201ZM443.831 509.571C445.767 509.571 447.461 509.087 448.913 508.119C450.365 507.151 451.498 505.831 452.312 504.159C453.126 502.487 453.533 500.617 453.533 498.549C453.533 496.437 453.126 494.545 452.312 492.873C451.498 491.201 450.365 489.881 448.913 488.913C447.461 487.945 445.767 487.461 443.831 487.461C441.939 487.461 440.267 487.945 438.815 488.913C437.363 489.881 436.23 491.201 435.416 492.873C434.602 494.545 434.195 496.437 434.195 498.549C434.195 500.617 434.602 502.487 435.416 504.159C436.23 505.831 437.363 507.151 438.815 508.119C440.267 509.087 441.939 509.571 443.831 509.571Z" fill="#bc6c25" fill-rule="nonzero" opacity="1" stroke="none"/>
<path d="M468.113 481.521L483.755 481.521C484.811 481.521 485.691 481.873 486.395 482.577C487.099 483.281 487.451 484.161 487.451 485.217C487.451 486.229 487.099 487.076 486.395 487.758C485.691 488.44 484.811 488.781 483.755 488.781L468.113 488.781C467.057 488.781 466.177 488.429 465.473 487.725C464.769 487.021 464.417 486.141 464.417 485.085C464.417 484.073 464.769 483.226 465.473 482.544C466.177 481.862 467.057 481.521 468.113 481.521ZM475.175 473.271C476.319 473.271 477.254 473.656 477.98 474.426C478.706 475.196 479.069 476.153 479.069 477.297L479.069 506.667C479.069 507.283 479.19 507.789 479.432 508.185C479.674 508.581 480.004 508.867 480.422 509.043C480.84 509.219 481.291 509.307 481.775 509.307C482.303 509.307 482.787 509.208 483.227 509.01C483.667 508.812 484.173 508.713 484.745 508.713C485.361 508.713 485.922 508.999 486.428 509.571C486.934 510.143 487.187 510.935 487.187 511.947C487.187 513.179 486.516 514.191 485.174 514.983C483.832 515.775 482.391 516.171 480.851 516.171C479.927 516.171 478.904 516.094 477.782 515.94C476.66 515.786 475.604 515.412 474.614 514.818C473.624 514.224 472.799 513.311 472.139 512.079C471.479 510.847 471.149 509.153 471.149 506.997L471.149 477.297C471.149 476.153 471.534 475.196 472.304 474.426C473.074 473.656 474.031 473.271 475.175 473.271Z" fill="#bb681f" fill-rule="nonzero" opacity="1" stroke="none"/>
<path d="M509.759 480.201C512.267 480.201 514.456 480.465 516.326 480.993C518.196 481.521 519.648 482.258 520.682 483.204C521.716 484.15 522.233 485.283 522.233 486.603C522.233 487.483 521.969 488.308 521.441 489.078C520.913 489.848 520.143 490.233 519.131 490.233C518.427 490.233 517.844 490.134 517.382 489.936C516.92 489.738 516.513 489.485 516.161 489.177C515.809 488.869 515.391 488.583 514.907 488.319C514.467 488.055 513.796 487.846 512.894 487.692C511.992 487.538 511.321 487.461 510.881 487.461C508.637 487.461 506.734 487.945 505.172 488.913C503.61 489.881 502.411 491.19 501.575 492.84C500.739 494.49 500.321 496.393 500.321 498.549C500.321 500.661 500.75 502.542 501.608 504.192C502.466 505.842 503.654 507.151 505.172 508.119C506.69 509.087 508.439 509.571 510.419 509.571C511.519 509.571 512.465 509.505 513.257 509.373C514.049 509.241 514.709 509.043 515.237 508.779C515.853 508.427 516.403 508.053 516.887 507.657C517.371 507.261 518.097 507.063 519.065 507.063C520.209 507.063 521.089 507.426 521.705 508.152C522.321 508.878 522.629 509.769 522.629 510.825C522.629 511.925 522.013 512.926 520.781 513.828C519.549 514.73 517.932 515.456 515.93 516.006C513.928 516.556 511.761 516.831 509.429 516.831C505.953 516.831 502.939 516.028 500.387 514.422C497.835 512.816 495.866 510.627 494.48 507.855C493.094 505.083 492.401 501.981 492.401 498.549C492.401 494.941 493.138 491.762 494.612 489.012C496.086 486.262 498.132 484.106 500.75 482.544C503.368 480.982 506.371 480.201 509.759 480.201Z" fill="#bb681f" fill-rule="nonzero" opacity="1" stroke="none"/>
<path d="M546.917 480.201C550.085 480.201 552.494 480.883 554.144 482.247C555.794 483.611 556.927 485.426 557.543 487.692C558.159 489.958 558.467 492.477 558.467 495.249L558.467 512.145C558.467 513.289 558.093 514.246 557.345 515.016C556.597 515.786 555.651 516.171 554.507 516.171C553.363 516.171 552.417 515.786 551.669 515.016C550.921 514.246 550.547 513.289 550.547 512.145L550.547 495.249C550.547 493.797 550.371 492.488 550.019 491.322C549.667 490.156 549.029 489.221 548.105 488.517C547.181 487.813 545.861 487.461 544.145 487.461C542.473 487.461 541.043 487.813 539.855 488.517C538.667 489.221 537.776 490.156 537.182 491.322C536.588 492.488 536.291 493.797 536.291 495.249L536.291 512.145C536.291 513.289 535.917 514.246 535.169 515.016C534.421 515.786 533.475 516.171 532.331 516.171C531.187 516.171 530.241 515.786 529.493 515.016C528.745 514.246 528.371 513.289 528.371 512.145L528.371 471.357C528.371 470.213 528.745 469.256 529.493 468.486C530.241 467.716 531.187 467.331 532.331 467.331C533.475 467.331 534.421 467.716 535.169 468.486C535.917 469.256 536.291 470.213 536.291 471.357L536.291 487.725L535.301 487.527C535.697 486.779 536.247 485.976 536.951 485.118C537.655 484.26 538.513 483.457 539.525 482.709C540.537 481.961 541.659 481.356 542.891 480.894C544.123 480.432 545.465 480.201 546.917 480.201Z" fill="#bb681f" fill-rule="nonzero" opacity="1" stroke="none"/>
<path d="M574.505 512.145C574.505 513.289 574.131 514.246 573.383 515.016C572.635 515.786 571.689 516.171 570.545 516.171C569.401 516.171 568.455 515.786 567.707 515.016C566.959 514.246 566.585 513.289 566.585 512.145L566.585 484.887C566.585 483.743 566.959 482.786 567.707 482.016C568.455 481.246 569.401 480.861 570.545 480.861C571.689 480.861 572.635 481.246 573.383 482.016C574.131 482.786 574.505 483.743 574.505 484.887L574.505 512.145ZM570.479 476.571C568.983 476.571 567.927 476.329 567.311 475.845C566.695 475.361 566.387 474.503 566.387 473.271L566.387 472.017C566.387 470.741 566.728 469.872 567.41 469.41C568.092 468.948 569.137 468.717 570.545 468.717C572.085 468.717 573.163 468.959 573.779 469.443C574.395 469.927 574.703 470.785 574.703 472.017L574.703 473.271C574.703 474.547 574.373 475.416 573.713 475.878C573.053 476.34 571.975 476.571 570.479 476.571Z" fill="#bb681f" fill-rule="nonzero" opacity="1" stroke="none"/>
<path d="M618.7 516.831C617.468 516.831 616.478 516.325 615.73 515.313L600.484 495.249L606.49 489.111L622.264 509.967C622.88 510.803 623.188 511.705 623.188 512.673C623.188 513.905 622.726 514.906 621.802 515.676C620.878 516.446 619.844 516.831 618.7 516.831ZM619.492 470.301C620.548 470.301 621.417 470.73 622.099 471.588C622.781 472.446 623.122 473.315 623.122 474.195C623.122 475.119 622.726 475.977 621.934 476.769L594.28 503.235L593.95 493.797L616.258 471.819C617.27 470.807 618.348 470.301 619.492 470.301ZM590.98 516.831C589.748 516.831 588.758 516.446 588.01 515.676C587.262 514.906 586.888 513.949 586.888 512.805L586.888 474.657C586.888 473.513 587.284 472.556 588.076 471.786C588.868 471.016 589.88 470.631 591.112 470.631C592.344 470.631 593.323 471.016 594.049 471.786C594.775 472.556 595.138 473.513 595.138 474.657L595.138 512.805C595.138 513.949 594.764 514.906 594.016 515.676C593.268 516.446 592.256 516.831 590.98 516.831Z" fill="#6a381f" fill-rule="nonzero" opacity="1" stroke="none"/>
<path d="M654.431 480.201C655.575 480.201 656.521 480.575 657.269 481.323C658.017 482.071 658.391 483.039 658.391 484.227L658.391 512.145C658.391 513.289 658.017 514.246 657.269 515.016C656.521 515.786 655.575 516.171 654.431 516.171C653.287 516.171 652.341 515.786 651.593 515.016C650.845 514.246 650.471 513.289 650.471 512.145L650.471 508.911L651.923 509.505C651.923 510.077 651.615 510.77 650.999 511.584C650.383 512.398 649.547 513.201 648.491 513.993C647.435 514.785 646.192 515.456 644.762 516.006C643.332 516.556 641.781 516.831 640.109 516.831C637.073 516.831 634.323 516.05 631.859 514.488C629.395 512.926 627.448 510.77 626.018 508.02C624.588 505.27 623.873 502.113 623.873 498.549C623.873 494.941 624.588 491.762 626.018 489.012C627.448 486.262 629.373 484.106 631.793 482.544C634.213 480.982 636.897 480.201 639.845 480.201C641.737 480.201 643.475 480.487 645.059 481.059C646.643 481.631 648.018 482.357 649.184 483.237C650.35 484.117 651.252 485.008 651.89 485.91C652.528 486.812 652.847 487.571 652.847 488.187L650.471 489.045L650.471 484.227C650.471 483.083 650.845 482.126 651.593 481.356C652.341 480.586 653.287 480.201 654.431 480.201ZM641.099 509.571C643.035 509.571 644.729 509.087 646.181 508.119C647.633 507.151 648.766 505.831 649.58 504.159C650.394 502.487 650.801 500.617 650.801 498.549C650.801 496.437 650.394 494.545 649.58 492.873C648.766 491.201 647.633 489.881 646.181 488.913C644.729 487.945 643.035 487.461 641.099 487.461C639.207 487.461 637.535 487.945 636.083 488.913C634.631 489.881 633.498 491.201 632.684 492.873C631.87 494.545 631.463 496.437 631.463 498.549C631.463 500.617 631.87 502.487 632.684 504.159C633.498 505.831 634.631 507.151 636.083 508.119C637.535 509.087 639.207 509.571 641.099 509.571Z" fill="#6a381f" fill-rule="nonzero" opacity="1" stroke="none"/>
<path d="M667.367 481.521L683.009 481.521C684.065 481.521 684.945 481.873 685.649 482.577C686.353 483.281 686.705 484.161 686.705 485.217C686.705 486.229 686.353 487.076 685.649 487.758C684.945 488.44 684.065 488.781 683.009 488.781L667.367 488.781C666.311 488.781 665.431 488.429 664.727 487.725C664.023 487.021 663.671 486.141 663.671 485.085C663.671 484.073 664.023 483.226 664.727 482.544C665.431 481.862 666.311 481.521 667.367 481.521ZM674.429 473.271C675.573 473.271 676.508 473.656 677.234 474.426C677.96 475.196 678.323 476.153 678.323 477.297L678.323 506.667C678.323 507.283 678.444 507.789 678.686 508.185C678.928 508.581 679.258 508.867 679.676 509.043C680.094 509.219 680.545 509.307 681.029 509.307C681.557 509.307 682.041 509.208 682.481 509.01C682.921 508.812 683.427 508.713 683.999 508.713C684.615 508.713 685.176 508.999 685.682 509.571C686.188 510.143 686.441 510.935 686.441 511.947C686.441 513.179 685.77 514.191 684.428 514.983C683.086 515.775 681.645 516.171 680.105 516.171C679.181 516.171 678.158 516.094 677.036 515.94C675.914 515.786 674.858 515.412 673.868 514.818C672.878 514.224 672.053 513.311 671.393 512.079C670.733 510.847 670.403 509.153 670.403 506.997L670.403 477.297C670.403 476.153 670.788 475.196 671.558 474.426C672.328 473.656 673.285 473.271 674.429 473.271Z" fill="#6a381f" fill-rule="nonzero" opacity="1" stroke="none"/>
<path d="M709.013 480.201C711.521 480.201 713.71 480.465 715.58 480.993C717.45 481.521 718.902 482.258 719.936 483.204C720.97 484.15 721.487 485.283 721.487 486.603C721.487 487.483 721.223 488.308 720.695 489.078C720.167 489.848 719.397 490.233 718.385 490.233C717.681 490.233 717.098 490.134 716.636 489.936C716.174 489.738 715.767 489.485 715.415 489.177C715.063 488.869 714.645 488.583 714.161 488.319C713.721 488.055 713.05 487.846 712.148 487.692C711.246 487.538 710.575 487.461 710.135 487.461C707.891 487.461 705.988 487.945 704.426 488.913C702.864 489.881 701.665 491.19 700.829 492.84C699.993 494.49 699.575 496.393 699.575 498.549C699.575 500.661 700.004 502.542 700.862 504.192C701.72 505.842 702.908 507.151 704.426 508.119C705.944 509.087 707.693 509.571 709.673 509.571C710.773 509.571 711.719 509.505 712.511 509.373C713.303 509.241 713.963 509.043 714.491 508.779C715.107 508.427 715.657 508.053 716.141 507.657C716.625 507.261 717.351 507.063 718.319 507.063C719.463 507.063 720.343 507.426 720.959 508.152C721.575 508.878 721.883 509.769 721.883 510.825C721.883 511.925 721.267 512.926 720.035 513.828C718.803 514.73 717.186 515.456 715.184 516.006C713.182 516.556 711.015 516.831 708.683 516.831C705.207 516.831 702.193 516.028 699.641 514.422C697.089 512.816 695.12 510.627 693.734 507.855C692.348 505.083 691.655 501.981 691.655 498.549C691.655 494.941 692.392 491.762 693.866 489.012C695.34 486.262 697.386 484.106 700.004 482.544C702.622 480.982 705.625 480.201 709.013 480.201Z" fill="#6a381f" fill-rule="nonzero" opacity="1" stroke="none"/>
<path d="M746.171 480.201C749.339 480.201 751.748 480.883 753.398 482.247C755.048 483.611 756.181 485.426 756.797 487.692C757.413 489.958 757.721 492.477 757.721 495.249L757.721 512.145C757.721 513.289 757.347 514.246 756.599 515.016C755.851 515.786 754.905 516.171 753.761 516.171C752.617 516.171 751.671 515.786 750.923 515.016C750.175 514.246 749.801 513.289 749.801 512.145L749.801 495.249C749.801 493.797 749.625 492.488 749.273 491.322C748.921 490.156 748.283 489.221 747.359 488.517C746.435 487.813 745.115 487.461 743.399 487.461C741.727 487.461 740.297 487.813 739.109 488.517C737.921 489.221 737.03 490.156 736.436 491.322C735.842 492.488 735.545 493.797 735.545 495.249L735.545 512.145C735.545 513.289 735.171 514.246 734.423 515.016C733.675 515.786 732.729 516.171 731.585 516.171C730.441 516.171 729.495 515.786 728.747 515.016C727.999 514.246 727.625 513.289 727.625 512.145L727.625 471.357C727.625 470.213 727.999 469.256 728.747 468.486C729.495 467.716 730.441 467.331 731.585 467.331C732.729 467.331 733.675 467.716 734.423 468.486C735.171 469.256 735.545 470.213 735.545 471.357L735.545 487.725L734.555 487.527C734.951 486.779 735.501 485.976 736.205 485.118C736.909 484.26 737.767 483.457 738.779 482.709C739.791 481.961 740.913 481.356 742.145 480.894C743.377 480.432 744.719 480.201 746.171 480.201Z" fill="#6a381f" fill-rule="nonzero" opacity="1" stroke="none"/>
<path d="M794.879 480.201C796.023 480.201 796.969 480.575 797.717 481.323C798.465 482.071 798.839 483.039 798.839 484.227L798.839 512.145C798.839 513.289 798.465 514.246 797.717 515.016C796.969 515.786 796.023 516.171 794.879 516.171C793.735 516.171 792.789 515.786 792.041 515.016C791.293 514.246 790.919 513.289 790.919 512.145L790.919 508.911L792.371 509.505C792.371 510.077 792.063 510.77 791.447 511.584C790.831 512.398 789.995 513.201 788.939 513.993C787.883 514.785 786.64 515.456 785.21 516.006C783.78 516.556 782.229 516.831 780.557 516.831C777.521 516.831 774.771 516.05 772.307 514.488C769.843 512.926 767.896 510.77 766.466 508.02C765.036 505.27 764.321 502.113 764.321 498.549C764.321 494.941 765.036 491.762 766.466 489.012C767.896 486.262 769.821 484.106 772.241 482.544C774.661 480.982 777.345 480.201 780.293 480.201C782.185 480.201 783.923 480.487 785.507 481.059C787.091 481.631 788.466 482.357 789.632 483.237C790.798 484.117 791.7 485.008 792.338 485.91C792.976 486.812 793.295 487.571 793.295 488.187L790.919 489.045L790.919 484.227C790.919 483.083 791.293 482.126 792.041 481.356C792.789 480.586 793.735 480.201 794.879 480.201ZM781.547 509.571C783.483 509.571 785.177 509.087 786.629 508.119C788.081 507.151 789.214 505.831 790.028 504.159C790.842 502.487 791.249 500.617 791.249 498.549C791.249 496.437 790.842 494.545 790.028 492.873C789.214 491.201 788.081 489.881 786.629 488.913C785.177 487.945 783.483 487.461 781.547 487.461C779.655 487.461 777.983 487.945 776.531 488.913C775.079 489.881 773.946 491.201 773.132 492.873C772.318 494.545 771.911 496.437 771.911 498.549C771.911 500.617 772.318 502.487 773.132 504.159C773.946 505.831 775.079 507.151 776.531 508.119C777.983 509.087 779.655 509.571 781.547 509.571Z" fill="#6a381f" fill-rule="nonzero" opacity="1" stroke="none"/>
</g>
<g opacity="1" vectornator:layerName="Curve 1">
<path d="M684.031 427.969C682.958 427.876 681.854 427.981 680.812 428.25C679.483 428.593 678.181 429.186 677.094 430.031C674.526 432.027 673.69 435.039 673.844 438.062C673.85 438.189 673.834 438.311 673.844 438.438C673.829 438.884 673.797 439.337 673.812 439.719C673.912 442.226 674.681 444.689 675.531 447.031C677.536 452.552 680.547 458.379 684.438 462.812C686.434 465.088 688.883 467.095 692 467.406C695.506 467.757 698.993 466.145 701.938 464.438C705.757 462.223 709.265 459.42 712.562 456.438C713.18 455.96 713.702 455.432 714.281 454.906C714.499 454.697 714.754 454.523 714.969 454.312C715.091 454.193 715.142 454.035 715.25 453.906C719.058 450.065 721.694 445.246 720.188 439.625C719.793 438.153 719.169 436.741 718.188 435.562C715.278 432.07 710.809 431.957 706.812 433.406C703.205 434.714 699.961 437.018 696.969 439.375C696.138 440.03 695.375 440.786 694.562 441.5C694.526 441.334 694.507 441.166 694.469 441C693.204 435.49 690.621 428.539 684.031 427.969Z" fill="#bb681f" stroke="none"/>
</g>
<g opacity="1" vectornator:layerName="Curve 2">
<path d="M596.438 423.031C583.251 423.176 570.141 425.189 557.219 427.688C541.3 430.765 525.335 434.086 509.812 438.812C500.222 441.733 490.804 445.285 481.625 449.312C470.306 454.278 460.067 461.286 449.188 467.094C447.913 467.774 447.445 469.351 448.125 470.625C448.805 471.899 450.382 472.399 451.656 471.719C462.414 465.979 472.556 459.022 483.75 454.125C492.742 450.191 501.947 446.687 511.344 443.844C526.695 439.199 542.509 435.974 558.25 432.969C570.855 430.562 583.642 428.619 596.5 428.5C603.464 428.436 610.545 428.782 617.375 430.219C632.325 433.364 645.622 441.442 658.438 449.406C659.733 450.211 661.445 449.827 662.25 448.531C663.055 447.235 662.671 445.524 661.375 444.719C647.995 436.414 634.098 428.116 618.5 424.844C611.278 423.329 603.8 422.95 596.438 423.031Z" fill="#bb681f" stroke="none"/>
</g>
<g opacity="1" vectornator:layerName="Curve 3">
<path d="M563.562 409.469C562.438 409.51 561.308 410.02 560.375 410.625C559.639 411.102 558.969 411.669 558.375 412.312C557.425 413.342 556.662 414.521 556 415.75C554.989 417.626 554.228 419.647 553.625 421.688C552.869 424.246 552.319 426.89 552.25 429.562C552.214 431.006 553.337 432.214 554.781 432.25C556.225 432.286 557.432 431.131 557.469 429.688C557.523 427.481 557.989 425.295 558.625 423.188C559.053 421.767 559.591 420.362 560.25 419.031C560.601 418.322 560.981 417.616 561.438 416.969C561.914 416.293 562.464 415.715 563.125 415.219C563.285 415.099 563.468 415.012 563.656 414.938C563.789 414.985 563.925 415.028 564 415.062C564.292 415.198 564.563 415.343 564.844 415.5C565.939 416.112 566.999 416.819 568.031 417.531C569.297 418.404 570.526 419.32 571.75 420.25C573.484 421.567 575.187 422.931 576.844 424.344C577.624 425.009 578.431 425.678 579.125 426.438C580.158 427.56 581.909 427.627 583.031 426.594C584.154 425.561 584.22 423.81 583.188 422.688C581.857 421.249 580.296 420.014 578.781 418.781C576.921 417.267 575.012 415.804 573.062 414.406C571.008 412.934 568.906 411.451 566.625 410.344C565.679 409.885 564.636 409.43 563.562 409.469Z" fill="#bb681f" stroke="none"/>
</g>
<g opacity="1" vectornator:layerName="Curve 4">
<path d="M648.062 417.375C646.586 417.264 645.197 418.603 644 419.469C643.509 419.824 643.022 420.176 642.531 420.531C641.965 420.942 641.41 421.338 640.844 421.75C640.237 422.192 639.608 422.623 639 423.062C636.186 425.099 633.402 427.187 630.562 429.188C629.381 430.018 629.107 431.631 629.938 432.812C630.768 433.994 632.381 434.268 633.562 433.438C635.796 431.869 637.999 430.275 640.219 428.688C641.448 427.809 642.673 426.935 643.906 426.062C644.571 425.592 645.24 425.126 645.906 424.656C646.16 426.615 646.38 428.567 646.594 430.531C646.815 432.566 647.024 434.616 647.188 436.656C647.248 437.417 647.383 438.23 647.312 439C647.215 440.522 648.353 441.84 649.875 441.938C651.397 442.035 652.715 440.897 652.812 439.375C652.891 438.022 652.719 436.624 652.594 435.281C652.428 433.494 652.234 431.721 652.031 429.938C651.822 428.094 651.598 426.244 651.344 424.406C651.186 423.264 651.018 422.103 650.812 420.969C650.697 420.334 650.62 419.532 650.281 418.969C650.024 418.541 649.902 418.319 649.562 418.031C649.055 417.6 648.555 417.412 648.062 417.375Z" fill="#bb681f" stroke="none"/>
</g>
<path d="M591.405 450.21C591.405 448.954 592.423 447.935 593.68 447.935C594.937 447.935 595.956 448.954 595.956 450.21C595.956 451.467 594.937 452.486 593.68 452.486C592.423 452.486 591.405 451.467 591.405 450.21Z" fill="#bb681f" fill-rule="nonzero" opacity="1" stroke="#bb681f" stroke-linecap="butt" stroke-linejoin="round" stroke-width="5.20213" vectornator:layerName="Oval 1"/>
<path d="M627.513 452.486C627.513 451.229 628.531 450.21 629.788 450.21C631.045 450.21 632.064 451.229 632.064 452.486C632.064 453.742 631.045 454.761 629.788 454.761C628.531 454.761 627.513 453.742 627.513 452.486Z" fill="#bb681f" fill-rule="nonzero" opacity="1" stroke="#bb681f" stroke-linecap="butt" stroke-linejoin="round" stroke-width="5.20213" vectornator:layerName="Oval 2"/>
<path d="M607.369 465.308C606.775 465.496 606.835 465.201 606.705 464.681C606.496 463.845 606.19 462.887 606.19 462.028C606.19 460.626 610.834 460.752 611.57 461.733C613.559 464.386 607.829 465.162 607.369 465.308Z" fill="none" opacity="1" stroke="#bb681f" stroke-linecap="round" stroke-linejoin="round" stroke-width="5.20213" vectornator:layerName="Curve 5"/>
</g>
</svg>
