<?xml version="1.0" encoding="UTF-8" standalone="no"?>
<!DOCTYPE svg PUBLIC "-//W3C//DTD SVG 1.1//EN" "http://www.w3.org/Graphics/SVG/1.1/DTD/svg11.dtd">
<!-- Created with Vectornator (http://vectornator.io/) -->
<svg height="100%" stroke-miterlimit="10" style="fill-rule:nonzero;clip-rule:evenodd;stroke-linecap:round;stroke-linejoin:round;" version="1.1" viewBox="0 0 596.087 226.589" width="100%" xml:space="preserve" xmlns="http://www.w3.org/2000/svg" xmlns:vectornator="http://vectornator.io" xmlns:xlink="http://www.w3.org/1999/xlink">
<defs/>
<g id="Layer-1" vectornator:layerName="Layer 1">
<g opacity="1" vectornator:layerName="Group 1">
<g opacity="1" vectornator:layerName="Group 1">
<path d="M114.234 119.425C116.522 119.425 118.667 120.085 120.669 121.405C122.671 122.725 124.288 124.507 125.52 126.751C126.752 128.995 127.368 131.503 127.368 134.275C127.368 137.003 126.752 139.489 125.52 141.733C124.288 143.977 122.671 145.77 120.669 147.112C118.667 148.454 116.522 149.125 114.234 149.125L102.09 149.125L102.75 147.937L102.75 161.599C102.75 162.743 102.398 163.7 101.694 164.47C100.99 165.24 100.066 165.625 98.9218 165.625C97.8218 165.625 96.9198 165.24 96.2158 164.47C95.5118 163.7 95.1598 162.743 95.1598 161.599L95.1598 123.451C95.1598 122.307 95.5448 121.35 96.3148 120.58C97.0848 119.81 98.0418 119.425 99.1858 119.425L114.234 119.425ZM114.234 141.601C115.07 141.601 115.884 141.249 116.676 140.545C117.468 139.841 118.128 138.928 118.656 137.806C119.184 136.684 119.448 135.507 119.448 134.275C119.448 132.999 119.184 131.811 118.656 130.711C118.128 129.611 117.468 128.72 116.676 128.038C115.884 127.356 115.07 127.015 114.234 127.015L101.958 127.015L102.75 125.827L102.75 142.657L102.024 141.601L114.234 141.601Z" fill="#bc6c25" fill-rule="nonzero" opacity="1" stroke="none"/>
<path d="M159.251 128.995C160.395 128.995 161.341 129.369 162.089 130.117C162.837 130.865 163.211 131.833 163.211 133.021L163.211 160.939C163.211 162.083 162.837 163.04 162.089 163.81C161.341 164.58 160.395 164.965 159.251 164.965C158.107 164.965 157.161 164.58 156.413 163.81C155.665 163.04 155.291 162.083 155.291 160.939L155.291 157.705L156.743 158.299C156.743 158.871 156.435 159.564 155.819 160.378C155.203 161.192 154.367 161.995 153.311 162.787C152.255 163.579 151.012 164.25 149.582 164.8C148.152 165.35 146.601 165.625 144.929 165.625C141.893 165.625 139.143 164.844 136.679 163.282C134.215 161.72 132.268 159.564 130.838 156.814C129.408 154.064 128.693 150.907 128.693 147.343C128.693 143.735 129.408 140.556 130.838 137.806C132.268 135.056 134.193 132.9 136.613 131.338C139.033 129.776 141.717 128.995 144.665 128.995C146.557 128.995 148.295 129.281 149.879 129.853C151.463 130.425 152.838 131.151 154.004 132.031C155.17 132.911 156.072 133.802 156.71 134.704C157.348 135.606 157.667 136.365 157.667 136.981L155.291 137.839L155.291 133.021C155.291 131.877 155.665 130.92 156.413 130.15C157.161 129.38 158.107 128.995 159.251 128.995ZM145.919 158.365C147.855 158.365 149.549 157.881 151.001 156.913C152.453 155.945 153.586 154.625 154.4 152.953C155.214 151.281 155.621 149.411 155.621 147.343C155.621 145.231 155.214 143.339 154.4 141.667C153.586 139.995 152.453 138.675 151.001 137.707C149.549 136.739 147.855 136.255 145.919 136.255C144.027 136.255 142.355 136.739 140.903 137.707C139.451 138.675 138.318 139.995 137.504 141.667C136.69 143.339 136.283 145.231 136.283 147.343C136.283 149.411 136.69 151.281 137.504 152.953C138.318 154.625 139.451 155.945 140.903 156.913C142.355 157.881 144.027 158.365 145.919 158.365Z" fill="#bc6c25" fill-rule="nonzero" opacity="1" stroke="none"/>
<path d="M170.202 130.315L185.844 130.315C186.9 130.315 187.78 130.667 188.484 131.371C189.188 132.075 189.54 132.955 189.54 134.011C189.54 135.023 189.188 135.87 188.484 136.552C187.78 137.234 186.9 137.575 185.844 137.575L170.202 137.575C169.146 137.575 168.266 137.223 167.562 136.519C166.858 135.815 166.506 134.935 166.506 133.879C166.506 132.867 166.858 132.02 167.562 131.338C168.266 130.656 169.146 130.315 170.202 130.315ZM177.264 122.065C178.408 122.065 179.343 122.45 180.069 123.22C180.795 123.99 181.158 124.947 181.158 126.091L181.158 155.461C181.158 156.077 181.279 156.583 181.521 156.979C181.763 157.375 182.093 157.661 182.511 157.837C182.929 158.013 183.38 158.101 183.864 158.101C184.392 158.101 184.876 158.002 185.316 157.804C185.756 157.606 186.262 157.507 186.834 157.507C187.45 157.507 188.011 157.793 188.517 158.365C189.023 158.937 189.276 159.729 189.276 160.741C189.276 161.973 188.605 162.985 187.263 163.777C185.921 164.569 184.48 164.965 182.94 164.965C182.016 164.965 180.993 164.888 179.871 164.734C178.749 164.58 177.693 164.206 176.703 163.612C175.713 163.018 174.888 162.105 174.228 160.873C173.568 159.641 173.238 157.947 173.238 155.791L173.238 126.091C173.238 124.947 173.623 123.99 174.393 123.22C175.163 122.45 176.12 122.065 177.264 122.065Z" fill="#bb681f" fill-rule="nonzero" opacity="1" stroke="none"/>
<path d="M211.848 128.995C214.356 128.995 216.545 129.259 218.415 129.787C220.285 130.315 221.737 131.052 222.771 131.998C223.805 132.944 224.322 134.077 224.322 135.397C224.322 136.277 224.058 137.102 223.53 137.872C223.002 138.642 222.232 139.027 221.22 139.027C220.516 139.027 219.933 138.928 219.471 138.73C219.009 138.532 218.602 138.279 218.25 137.971C217.898 137.663 217.48 137.377 216.996 137.113C216.556 136.849 215.885 136.64 214.983 136.486C214.081 136.332 213.41 136.255 212.97 136.255C210.726 136.255 208.823 136.739 207.261 137.707C205.699 138.675 204.5 139.984 203.664 141.634C202.828 143.284 202.41 145.187 202.41 147.343C202.41 149.455 202.839 151.336 203.697 152.986C204.555 154.636 205.743 155.945 207.261 156.913C208.779 157.881 210.528 158.365 212.508 158.365C213.608 158.365 214.554 158.299 215.346 158.167C216.138 158.035 216.798 157.837 217.326 157.573C217.942 157.221 218.492 156.847 218.976 156.451C219.46 156.055 220.186 155.857 221.154 155.857C222.298 155.857 223.178 156.22 223.794 156.946C224.41 157.672 224.718 158.563 224.718 159.619C224.718 160.719 224.102 161.72 222.87 162.622C221.638 163.524 220.021 164.25 218.019 164.8C216.017 165.35 213.85 165.625 211.518 165.625C208.042 165.625 205.028 164.822 202.476 163.216C199.924 161.61 197.955 159.421 196.569 156.649C195.183 153.877 194.49 150.775 194.49 147.343C194.49 143.735 195.227 140.556 196.701 137.806C198.175 135.056 200.221 132.9 202.839 131.338C205.457 129.776 208.46 128.995 211.848 128.995Z" fill="#bb681f" fill-rule="nonzero" opacity="1" stroke="none"/>
<path d="M249.006 128.995C252.174 128.995 254.583 129.677 256.233 131.041C257.883 132.405 259.016 134.22 259.632 136.486C260.248 138.752 260.556 141.271 260.556 144.043L260.556 160.939C260.556 162.083 260.182 163.04 259.434 163.81C258.686 164.58 257.74 164.965 256.596 164.965C255.452 164.965 254.506 164.58 253.758 163.81C253.01 163.04 252.636 162.083 252.636 160.939L252.636 144.043C252.636 142.591 252.46 141.282 252.108 140.116C251.756 138.95 251.118 138.015 250.194 137.311C249.27 136.607 247.95 136.255 246.234 136.255C244.562 136.255 243.132 136.607 241.944 137.311C240.756 138.015 239.865 138.95 239.271 140.116C238.677 141.282 238.38 142.591 238.38 144.043L238.38 160.939C238.38 162.083 238.006 163.04 237.258 163.81C236.51 164.58 235.564 164.965 234.42 164.965C233.276 164.965 232.33 164.58 231.582 163.81C230.834 163.04 230.46 162.083 230.46 160.939L230.46 120.151C230.46 119.007 230.834 118.05 231.582 117.28C232.33 116.51 233.276 116.125 234.42 116.125C235.564 116.125 236.51 116.51 237.258 117.28C238.006 118.05 238.38 119.007 238.38 120.151L238.38 136.519L237.39 136.321C237.786 135.573 238.336 134.77 239.04 133.912C239.744 133.054 240.602 132.251 241.614 131.503C242.626 130.755 243.748 130.15 244.98 129.688C246.212 129.226 247.554 128.995 249.006 128.995Z" fill="#bb681f" fill-rule="nonzero" opacity="1" stroke="none"/>
<path d="M276.594 160.939C276.594 162.083 276.22 163.04 275.472 163.81C274.724 164.58 273.778 164.965 272.634 164.965C271.49 164.965 270.544 164.58 269.796 163.81C269.048 163.04 268.674 162.083 268.674 160.939L268.674 133.681C268.674 132.537 269.048 131.58 269.796 130.81C270.544 130.04 271.49 129.655 272.634 129.655C273.778 129.655 274.724 130.04 275.472 130.81C276.22 131.58 276.594 132.537 276.594 133.681L276.594 160.939ZM272.568 125.365C271.072 125.365 270.016 125.123 269.4 124.639C268.784 124.155 268.476 123.297 268.476 122.065L268.476 120.811C268.476 119.535 268.817 118.666 269.499 118.204C270.181 117.742 271.226 117.511 272.634 117.511C274.174 117.511 275.252 117.753 275.868 118.237C276.484 118.721 276.792 119.579 276.792 120.811L276.792 122.065C276.792 123.341 276.462 124.21 275.802 124.672C275.142 125.134 274.064 125.365 272.568 125.365Z" fill="#bb681f" fill-rule="nonzero" opacity="1" stroke="none"/>
<path d="M320.788 165.625C319.556 165.625 318.566 165.119 317.818 164.107L302.572 144.043L308.578 137.905L324.352 158.761C324.968 159.597 325.276 160.499 325.276 161.467C325.276 162.699 324.814 163.7 323.89 164.47C322.966 165.24 321.932 165.625 320.788 165.625ZM321.58 119.095C322.636 119.095 323.505 119.524 324.187 120.382C324.869 121.24 325.21 122.109 325.21 122.989C325.21 123.913 324.814 124.771 324.022 125.563L296.368 152.029L296.038 142.591L318.346 120.613C319.358 119.601 320.436 119.095 321.58 119.095ZM293.068 165.625C291.836 165.625 290.846 165.24 290.098 164.47C289.35 163.7 288.976 162.743 288.976 161.599L288.976 123.451C288.976 122.307 289.372 121.35 290.164 120.58C290.956 119.81 291.968 119.425 293.2 119.425C294.432 119.425 295.411 119.81 296.137 120.58C296.863 121.35 297.226 122.307 297.226 123.451L297.226 161.599C297.226 162.743 296.852 163.7 296.104 164.47C295.356 165.24 294.344 165.625 293.068 165.625Z" fill="#6a381f" fill-rule="nonzero" opacity="1" stroke="none"/>
<path d="M356.52 128.995C357.664 128.995 358.61 129.369 359.358 130.117C360.106 130.865 360.48 131.833 360.48 133.021L360.48 160.939C360.48 162.083 360.106 163.04 359.358 163.81C358.61 164.58 357.664 164.965 356.52 164.965C355.376 164.965 354.43 164.58 353.682 163.81C352.934 163.04 352.56 162.083 352.56 160.939L352.56 157.705L354.012 158.299C354.012 158.871 353.704 159.564 353.088 160.378C352.472 161.192 351.636 161.995 350.58 162.787C349.524 163.579 348.281 164.25 346.851 164.8C345.421 165.35 343.87 165.625 342.198 165.625C339.162 165.625 336.412 164.844 333.948 163.282C331.484 161.72 329.537 159.564 328.107 156.814C326.677 154.064 325.962 150.907 325.962 147.343C325.962 143.735 326.677 140.556 328.107 137.806C329.537 135.056 331.462 132.9 333.882 131.338C336.302 129.776 338.986 128.995 341.934 128.995C343.826 128.995 345.564 129.281 347.148 129.853C348.732 130.425 350.107 131.151 351.273 132.031C352.439 132.911 353.341 133.802 353.979 134.704C354.617 135.606 354.936 136.365 354.936 136.981L352.56 137.839L352.56 133.021C352.56 131.877 352.934 130.92 353.682 130.15C354.43 129.38 355.376 128.995 356.52 128.995ZM343.188 158.365C345.124 158.365 346.818 157.881 348.27 156.913C349.722 155.945 350.855 154.625 351.669 152.953C352.483 151.281 352.89 149.411 352.89 147.343C352.89 145.231 352.483 143.339 351.669 141.667C350.855 139.995 349.722 138.675 348.27 137.707C346.818 136.739 345.124 136.255 343.188 136.255C341.296 136.255 339.624 136.739 338.172 137.707C336.72 138.675 335.587 139.995 334.773 141.667C333.959 143.339 333.552 145.231 333.552 147.343C333.552 149.411 333.959 151.281 334.773 152.953C335.587 154.625 336.72 155.945 338.172 156.913C339.624 157.881 341.296 158.365 343.188 158.365Z" fill="#6a381f" fill-rule="nonzero" opacity="1" stroke="none"/>
<path d="M369.456 130.315L385.098 130.315C386.154 130.315 387.034 130.667 387.738 131.371C388.442 132.075 388.794 132.955 388.794 134.011C388.794 135.023 388.442 135.87 387.738 136.552C387.034 137.234 386.154 137.575 385.098 137.575L369.456 137.575C368.4 137.575 367.52 137.223 366.816 136.519C366.112 135.815 365.76 134.935 365.76 133.879C365.76 132.867 366.112 132.02 366.816 131.338C367.52 130.656 368.4 130.315 369.456 130.315ZM376.518 122.065C377.662 122.065 378.597 122.45 379.323 123.22C380.049 123.99 380.412 124.947 380.412 126.091L380.412 155.461C380.412 156.077 380.533 156.583 380.775 156.979C381.017 157.375 381.347 157.661 381.765 157.837C382.183 158.013 382.634 158.101 383.118 158.101C383.646 158.101 384.13 158.002 384.57 157.804C385.01 157.606 385.516 157.507 386.088 157.507C386.704 157.507 387.265 157.793 387.771 158.365C388.277 158.937 388.53 159.729 388.53 160.741C388.53 161.973 387.859 162.985 386.517 163.777C385.175 164.569 383.734 164.965 382.194 164.965C381.27 164.965 380.247 164.888 379.125 164.734C378.003 164.58 376.947 164.206 375.957 163.612C374.967 163.018 374.142 162.105 373.482 160.873C372.822 159.641 372.492 157.947 372.492 155.791L372.492 126.091C372.492 124.947 372.877 123.99 373.647 123.22C374.417 122.45 375.374 122.065 376.518 122.065Z" fill="#6a381f" fill-rule="nonzero" opacity="1" stroke="none"/>
<path d="M411.102 128.995C413.61 128.995 415.799 129.259 417.669 129.787C419.539 130.315 420.991 131.052 422.025 131.998C423.059 132.944 423.576 134.077 423.576 135.397C423.576 136.277 423.312 137.102 422.784 137.872C422.256 138.642 421.486 139.027 420.474 139.027C419.77 139.027 419.187 138.928 418.725 138.73C418.263 138.532 417.856 138.279 417.504 137.971C417.152 137.663 416.734 137.377 416.25 137.113C415.81 136.849 415.139 136.64 414.237 136.486C413.335 136.332 412.664 136.255 412.224 136.255C409.98 136.255 408.077 136.739 406.515 137.707C404.953 138.675 403.754 139.984 402.918 141.634C402.082 143.284 401.664 145.187 401.664 147.343C401.664 149.455 402.093 151.336 402.951 152.986C403.809 154.636 404.997 155.945 406.515 156.913C408.033 157.881 409.782 158.365 411.762 158.365C412.862 158.365 413.808 158.299 414.6 158.167C415.392 158.035 416.052 157.837 416.58 157.573C417.196 157.221 417.746 156.847 418.23 156.451C418.714 156.055 419.44 155.857 420.408 155.857C421.552 155.857 422.432 156.22 423.048 156.946C423.664 157.672 423.972 158.563 423.972 159.619C423.972 160.719 423.356 161.72 422.124 162.622C420.892 163.524 419.275 164.25 417.273 164.8C415.271 165.35 413.104 165.625 410.772 165.625C407.296 165.625 404.282 164.822 401.73 163.216C399.178 161.61 397.209 159.421 395.823 156.649C394.437 153.877 393.744 150.775 393.744 147.343C393.744 143.735 394.481 140.556 395.955 137.806C397.429 135.056 399.475 132.9 402.093 131.338C404.711 129.776 407.714 128.995 411.102 128.995Z" fill="#6a381f" fill-rule="nonzero" opacity="1" stroke="none"/>
<path d="M448.26 128.995C451.428 128.995 453.837 129.677 455.487 131.041C457.137 132.405 458.27 134.22 458.886 136.486C459.502 138.752 459.81 141.271 459.81 144.043L459.81 160.939C459.81 162.083 459.436 163.04 458.688 163.81C457.94 164.58 456.994 164.965 455.85 164.965C454.706 164.965 453.76 164.58 453.012 163.81C452.264 163.04 451.89 162.083 451.89 160.939L451.89 144.043C451.89 142.591 451.714 141.282 451.362 140.116C451.01 138.95 450.372 138.015 449.448 137.311C448.524 136.607 447.204 136.255 445.488 136.255C443.816 136.255 442.386 136.607 441.198 137.311C440.01 138.015 439.119 138.95 438.525 140.116C437.931 141.282 437.634 142.591 437.634 144.043L437.634 160.939C437.634 162.083 437.26 163.04 436.512 163.81C435.764 164.58 434.818 164.965 433.674 164.965C432.53 164.965 431.584 164.58 430.836 163.81C430.088 163.04 429.714 162.083 429.714 160.939L429.714 120.151C429.714 119.007 430.088 118.05 430.836 117.28C431.584 116.51 432.53 116.125 433.674 116.125C434.818 116.125 435.764 116.51 436.512 117.28C437.26 118.05 437.634 119.007 437.634 120.151L437.634 136.519L436.644 136.321C437.04 135.573 437.59 134.77 438.294 133.912C438.998 133.054 439.856 132.251 440.868 131.503C441.88 130.755 443.002 130.15 444.234 129.688C445.466 129.226 446.808 128.995 448.26 128.995Z" fill="#6a381f" fill-rule="nonzero" opacity="1" stroke="none"/>
<path d="M496.968 128.995C498.112 128.995 499.058 129.369 499.806 130.117C500.554 130.865 500.928 131.833 500.928 133.021L500.928 160.939C500.928 162.083 500.554 163.04 499.806 163.81C499.058 164.58 498.112 164.965 496.968 164.965C495.824 164.965 494.878 164.58 494.13 163.81C493.382 163.04 493.008 162.083 493.008 160.939L493.008 157.705L494.46 158.299C494.46 158.871 494.152 159.564 493.536 160.378C492.92 161.192 492.084 161.995 491.028 162.787C489.972 163.579 488.729 164.25 487.299 164.8C485.869 165.35 484.318 165.625 482.646 165.625C479.61 165.625 476.86 164.844 474.396 163.282C471.932 161.72 469.985 159.564 468.555 156.814C467.125 154.064 466.41 150.907 466.41 147.343C466.41 143.735 467.125 140.556 468.555 137.806C469.985 135.056 471.91 132.9 474.33 131.338C476.75 129.776 479.434 128.995 482.382 128.995C484.274 128.995 486.012 129.281 487.596 129.853C489.18 130.425 490.555 131.151 491.721 132.031C492.887 132.911 493.789 133.802 494.427 134.704C495.065 135.606 495.384 136.365 495.384 136.981L493.008 137.839L493.008 133.021C493.008 131.877 493.382 130.92 494.13 130.15C494.878 129.38 495.824 128.995 496.968 128.995ZM483.636 158.365C485.572 158.365 487.266 157.881 488.718 156.913C490.17 155.945 491.303 154.625 492.117 152.953C492.931 151.281 493.338 149.411 493.338 147.343C493.338 145.231 492.931 143.339 492.117 141.667C491.303 139.995 490.17 138.675 488.718 137.707C487.266 136.739 485.572 136.255 483.636 136.255C481.744 136.255 480.072 136.739 478.62 137.707C477.168 138.675 476.035 139.995 475.221 141.667C474.407 143.339 474 145.231 474 147.343C474 149.411 474.407 151.281 475.221 152.953C476.035 154.625 477.168 155.945 478.62 156.913C480.072 157.881 481.744 158.365 483.636 158.365Z" fill="#6a381f" fill-rule="nonzero" opacity="1" stroke="none"/>
</g>
<g opacity="1" vectornator:layerName="Curve 1">
<path d="M386.125 76.7812C385.051 76.6883 383.948 76.7936 382.906 77.0625C381.577 77.4055 380.274 77.999 379.188 78.8438C376.638 80.8252 375.8 83.7806 375.938 86.7812C375.935 86.8052 375.908 86.8197 375.906 86.8438C375.911 86.9281 375.9 87.0094 375.906 87.0938C375.883 87.5855 375.89 88.0815 375.906 88.5C376.006 91.0072 376.774 93.5014 377.625 95.8438C379.63 101.365 382.61 107.192 386.5 111.625C388.497 113.901 390.977 115.907 394.094 116.219C397.6 116.569 401.087 114.926 404.031 113.219C407.841 111.01 411.334 108.223 414.625 105.25C415.28 104.745 415.826 104.184 416.438 103.625C416.634 103.437 416.869 103.283 417.062 103.094C417.168 102.991 417.218 102.859 417.312 102.75C421.144 98.9025 423.793 94.0784 422.281 88.4375C421.887 86.9652 421.231 85.5219 420.25 84.3438C417.341 80.8516 412.903 80.7695 408.906 82.2188C405.299 83.527 402.055 85.799 399.062 88.1562C398.22 88.82 397.447 89.5871 396.625 90.3125C396.587 90.1373 396.571 89.956 396.531 89.7812C395.267 84.2717 392.715 77.3519 386.125 76.7812Z" fill="#bb681f" stroke="none"/>
</g>
<g opacity="1" vectornator:layerName="Curve 2">
<path d="M298.531 71.8125C285.345 71.9573 272.234 73.9703 259.312 76.4688C243.394 79.5466 227.428 82.8672 211.906 87.5938C202.315 90.5141 192.898 94.0979 183.719 98.125C172.4 103.091 162.161 110.098 151.281 115.906C150.007 116.586 149.539 118.163 150.219 119.438C150.899 120.712 152.476 121.18 153.75 120.5C164.508 114.761 174.618 107.803 185.812 102.906C194.805 98.9726 204.041 95.4994 213.438 92.6562C228.788 88.0115 244.603 84.7867 260.344 81.7812C272.949 79.3745 285.704 77.4001 298.562 77.2812C305.526 77.2169 312.607 77.5943 319.438 79.0312C334.387 82.1762 347.716 90.223 360.531 98.1875C361.827 98.9924 363.539 98.6084 364.344 97.3125C365.149 96.0166 364.733 94.3049 363.438 93.5C350.058 85.1953 336.191 76.9285 320.594 73.6562C313.372 72.1411 305.894 71.7316 298.531 71.8125Z" fill="#bb681f" stroke="none"/>
</g>
<g opacity="1" vectornator:layerName="Curve 3">
<path d="M265.625 58.2812C264.5 58.3223 263.371 58.8018 262.438 59.4062C261.702 59.8829 261.063 60.4811 260.469 61.125C259.519 62.1543 258.725 63.3331 258.062 64.5625C257.052 66.4381 256.291 68.4282 255.688 70.4688C254.931 73.0275 254.412 75.671 254.344 78.3438C254.308 79.7876 255.431 80.995 256.875 81.0312C258.319 81.0675 259.526 79.9126 259.562 78.4688C259.616 76.2618 260.083 74.0765 260.719 71.9688C261.147 70.5486 261.685 69.1432 262.344 67.8125C262.695 67.1033 263.075 66.4288 263.531 65.7812C264.007 65.1052 264.526 64.4967 265.188 64C265.348 63.8792 265.561 63.7934 265.75 63.7188C265.884 63.7669 266.018 63.8396 266.094 63.875C266.385 64.011 266.657 64.1557 266.938 64.3125C268.033 64.9243 269.093 65.6316 270.125 66.3438C271.39 67.217 272.62 68.133 273.844 69.0625C275.578 70.3792 277.28 71.7121 278.938 73.125C279.718 73.7903 280.525 74.4589 281.219 75.2188C282.252 76.3414 284.002 76.4079 285.125 75.375C286.248 74.3421 286.314 72.6227 285.281 71.5C283.951 70.0611 282.39 68.8269 280.875 67.5938C279.015 66.0798 277.106 64.6162 275.156 63.2188C273.102 61.7462 271 60.2634 268.719 59.1562C267.773 58.6972 266.698 58.2421 265.625 58.2812Z" fill="#bb681f" stroke="none"/>
</g>
<g opacity="1" vectornator:layerName="Curve 4">
<path d="M350.156 66.1562C348.679 66.0451 347.29 67.3842 346.094 68.25C345.603 68.605 345.115 68.957 344.625 69.3125C344.058 69.7233 343.503 70.1507 342.938 70.5625C342.331 71.004 341.702 71.4351 341.094 71.875C338.28 73.9114 335.496 75.9682 332.656 77.9688C331.475 78.7996 331.169 80.4436 332 81.625C332.831 82.8064 334.475 83.0809 335.656 82.25C337.89 80.6815 340.092 79.0561 342.312 77.4688C343.542 76.5898 344.766 75.7166 346 74.8438C346.665 74.3731 347.334 73.9069 348 73.4375C348.254 75.3964 348.443 77.3488 348.656 79.3125C348.877 81.3474 349.118 83.3969 349.281 85.4375C349.342 86.1985 349.477 87.0424 349.406 87.8125C349.308 89.3349 350.446 90.6522 351.969 90.75C353.491 90.8478 354.809 89.6786 354.906 88.1562C354.985 86.8028 354.812 85.4056 354.688 84.0625C354.521 82.2752 354.328 80.5023 354.125 78.7188C353.916 76.8753 353.692 75.0253 353.438 73.1875C353.28 72.0455 353.112 70.9157 352.906 69.7812C352.791 69.1466 352.714 68.3444 352.375 67.7812C352.117 67.353 351.995 67.1004 351.656 66.8125C351.149 66.3817 350.649 66.1933 350.156 66.1562Z" fill="#bb681f" stroke="none"/>
</g>
<path d="M293.493 99.0047C293.493 97.748 294.512 96.7293 295.768 96.7293C297.025 96.7293 298.044 97.748 298.044 99.0047C298.044 100.261 297.025 101.28 295.768 101.28C294.512 101.28 293.493 100.261 293.493 99.0047Z" fill="#bb681f" fill-rule="nonzero" opacity="1" stroke="#bb681f" stroke-linecap="butt" stroke-linejoin="round" stroke-width="5.20213" vectornator:layerName="Oval 1"/>
<path d="M325.51 101.28C325.51 100.023 326.529 99.0047 327.786 99.0047C329.042 99.0047 330.061 100.023 330.061 101.28C330.061 102.537 329.042 103.556 327.786 103.556C326.529 103.556 325.51 102.537 325.51 101.28Z" fill="#bb681f" fill-rule="nonzero" opacity="1" stroke="#bb681f" stroke-linecap="butt" stroke-linejoin="round" stroke-width="5.20213" vectornator:layerName="Oval 2"/>
<path d="M310.51 113.085C309.916 113.273 309.977 112.978 309.847 112.459C309.638 111.622 309.331 110.664 309.331 109.806C309.331 108.404 313.975 108.53 314.711 109.511C316.701 112.163 310.97 112.94 310.51 113.085Z" fill="none" opacity="1" stroke="#bb681f" stroke-linecap="round" stroke-linejoin="round" stroke-width="5.20213" vectornator:layerName="Curve 5"/>
</g>
</g>
</svg>
