<svg xmlns="http://www.w3.org/2000/svg" xmlns:xlink="http://www.w3.org/1999/xlink" width="500" zoomAndPan="magnify" viewBox="0 0 375 374.999991" height="500" preserveAspectRatio="xMidYMid meet" version="1.0"><defs><g/><clipPath id="169aff63ab"><path d="M 258 106 L 282 106 L 282 128 L 258 128 Z M 258 106 " clip-rule="nonzero"/></clipPath><clipPath id="0ca911a81a"><path d="M 261.019531 104.359375 L 282.976562 111.140625 L 277.027344 130.402344 L 255.066406 123.617188 Z M 261.019531 104.359375 " clip-rule="nonzero"/></clipPath><clipPath id="a5d1b6afb7"><path d="M 260.917969 107.765625 C 258.234375 110.144531 258.605469 113.382812 259.714844 115.382812 L 266.1875 127.054688 L 277.914062 121.039062 C 279.882812 119.863281 280.976562 118.3125 281.257812 116.292969 C 281.648438 113.5 280.09375 110.757812 277.480469 109.628906 C 275.875 108.9375 274.125 108.910156 272.550781 109.566406 C 272.128906 109.742188 271.730469 109.960938 271.363281 110.21875 C 271.171875 109.734375 270.914062 109.269531 270.597656 108.828125 C 269.496094 107.289062 267.800781 106.289062 265.933594 106.082031 C 264.167969 105.890625 262.339844 106.503906 260.917969 107.765625 Z M 260.917969 107.765625 " clip-rule="nonzero"/></clipPath><clipPath id="ed173fb90a"><path d="M 89.4375 145.023438 L 96 145.023438 L 96 151.773438 L 89.4375 151.773438 Z M 89.4375 145.023438 " clip-rule="nonzero"/></clipPath><clipPath id="10a58d0baf"><path d="M 150.875 114.132812 L 157.625 114.132812 L 157.625 120.882812 L 150.875 120.882812 Z M 150.875 114.132812 " clip-rule="nonzero"/></clipPath><clipPath id="6295eda2f7"><path d="M 279 161.410156 L 285.75 161.410156 L 285.75 168 L 279 168 Z M 279 161.410156 " clip-rule="nonzero"/></clipPath><clipPath id="ffa81a8bd9"><path d="M 282.921875 196.53125 L 289.671875 196.53125 L 289.671875 203.28125 L 282.921875 203.28125 Z M 282.921875 196.53125 " clip-rule="nonzero"/></clipPath><clipPath id="7a412771d2"><path d="M 245.289062 231.652344 L 252 231.652344 L 252 238.402344 L 245.289062 238.402344 Z M 245.289062 231.652344 " clip-rule="nonzero"/></clipPath><clipPath id="1d6ada5a63"><path d="M 192.324219 184.21875 L 199 184.21875 L 199 190.96875 L 192.324219 190.96875 Z M 192.324219 184.21875 " clip-rule="nonzero"/></clipPath><clipPath id="53f72ec94d"><path d="M 110.71875 231.652344 L 117.46875 231.652344 L 117.46875 238.402344 L 110.71875 238.402344 Z M 110.71875 231.652344 " clip-rule="nonzero"/></clipPath></defs><g fill="#59310c" fill-opacity="1"><g transform="translate(106.005166, 165.012008)"><g><path d="M 28.773438 -52.582031 C 27.078125 -52.582031 24.898438 -52.21875 23.382812 -51.128906 C 23.261719 -53.125 21.261719 -54.460938 19.082031 -54.460938 C 16.902344 -54.460938 14.660156 -53.246094 13.570312 -50.21875 L -1.757812 -6.300781 C -2 -5.574219 -2.179688 -4.90625 -2.179688 -4.300781 C -2.179688 -1.636719 0.0625 0 2.484375 0 C 4.484375 0 6.601562 -1.210938 7.570312 -4.058594 L 11.628906 -15.992188 C 13.75 -13.992188 16.839844 -12.722656 20.234375 -12.722656 C 26.167969 -12.722656 32.589844 -16.355469 35.316406 -24.050781 L 40.101562 -37.496094 C 40.648438 -39.011719 40.949219 -40.585938 40.949219 -41.917969 C 40.949219 -48.886719 35.4375 -52.582031 28.773438 -52.582031 Z M 30.046875 -37.195312 L 26.351562 -26.351562 C 25.320312 -23.320312 23.019531 -21.746094 20.65625 -21.746094 C 17.992188 -21.746094 15.8125 -23.746094 15.8125 -26.472656 C 15.8125 -26.957031 15.871094 -27.320312 16.054688 -27.804688 L 20.234375 -40.101562 C 21.382812 -43.433594 23.867188 -44.585938 26.289062 -44.585938 C 28.714844 -44.585938 30.53125 -43.011719 30.53125 -40.101562 C 30.53125 -39.316406 30.410156 -38.34375 30.046875 -37.195312 Z M 30.046875 -37.195312 "/></g></g></g><g fill="#59310c" fill-opacity="1"><g transform="translate(141.076471, 165.012008)"><g><path d="M 37.980469 -20.476562 C 36.285156 -20.476562 34.40625 -19.445312 33.679688 -17.144531 C 31.320312 -9.691406 27.503906 -7.207031 24.777344 -7.207031 C 23.746094 -7.207031 23.140625 -7.753906 23.140625 -8.722656 C 23.140625 -9.207031 23.261719 -9.8125 23.445312 -10.480469 L 30.226562 -30.105469 C 30.46875 -30.832031 30.589844 -31.5 30.589844 -32.105469 C 30.589844 -34.769531 28.410156 -36.164062 26.167969 -36.164062 C 24.472656 -36.164062 22.714844 -35.378906 21.746094 -33.863281 C 20.476562 -34.648438 18.113281 -35.558594 15.023438 -35.558594 C 11.023438 -35.558594 6.664062 -33.378906 5.027344 -28.714844 L -0.667969 -12.417969 C -1.03125 -11.328125 -1.273438 -10.238281 -1.273438 -9.148438 C -1.273438 -4.121094 2.785156 0 8.117188 0 C 10.964844 0 13.871094 -1.273438 16.113281 -3.269531 C 18.050781 -0.484375 22.351562 0 24.171875 0 C 29.199219 0 35.921875 -2.542969 39.800781 -12.359375 C 40.648438 -14.71875 41.3125 -16.234375 41.3125 -17.324219 C 41.3125 -19.382812 39.738281 -20.476562 37.980469 -20.476562 Z M 17.992188 -21.082031 L 15.082031 -12.054688 C 13.8125 -8.117188 11.507812 -7.207031 10.238281 -7.207031 C 8.90625 -7.207031 8.238281 -8.058594 8.238281 -9.449219 C 8.238281 -10.238281 8.421875 -10.964844 8.601562 -11.507812 L 12.480469 -23.6875 C 13.628906 -27.382812 15.324219 -27.867188 16.296875 -27.867188 C 17.445312 -27.867188 18.71875 -26.714844 18.71875 -24.65625 C 18.71875 -23.746094 18.476562 -22.59375 17.992188 -21.082031 Z M 17.992188 -21.082031 "/></g></g></g><g fill="#59310c" fill-opacity="1"><g transform="translate(172.876891, 165.012008)"><g><path d="M 21.625 -17.082031 C 19.203125 -10.417969 15.386719 -7.207031 11.875 -7.207031 C 9.691406 -7.207031 8.359375 -8.542969 8.359375 -10.175781 C 8.359375 -10.601562 8.480469 -11.085938 8.601562 -11.507812 L 14.539062 -28.410156 L 18.476562 -28.410156 C 21.566406 -28.410156 23.199219 -30.589844 23.199219 -32.589844 C 23.199219 -34.164062 22.171875 -35.558594 19.871094 -35.558594 L 17.144531 -35.558594 L 21.203125 -47.371094 C 21.324219 -47.796875 21.382812 -48.160156 21.382812 -48.523438 C 21.382812 -50.765625 19.808594 -52.582031 17.144531 -52.582031 C 15.144531 -52.582031 13.449219 -51.1875 12.722656 -49.066406 L 7.875 -35.558594 L 5.332031 -35.558594 C 2.058594 -35.558594 0.667969 -33.5 0.667969 -31.5625 C 0.667969 -29.863281 1.695312 -28.410156 3.332031 -28.410156 L 5.332031 -28.410156 L 0.242188 -13.8125 L 0.242188 -13.871094 C -0.242188 -12.417969 -0.484375 -11.085938 -0.484375 -9.8125 C -0.484375 -3.632812 5.027344 0 11.265625 0 C 19.019531 0 25.503906 -5.753906 28.957031 -15.691406 C 29.078125 -16.113281 29.199219 -16.539062 29.199219 -16.902344 C 29.199219 -18.71875 27.441406 -19.871094 25.5625 -19.871094 C 24.050781 -19.871094 22.351562 -19.019531 21.625 -17.082031 Z M 21.625 -17.082031 "/></g></g></g><g fill="#59310c" fill-opacity="1"><g transform="translate(192.683993, 165.012008)"><g><path d="M 29.320312 -17.992188 C 26.230469 -10.175781 20.355469 -7.269531 15.75 -7.269531 C 11.570312 -7.269531 8.90625 -9.691406 8.90625 -12.78125 C 8.90625 -13.449219 9.027344 -14.175781 9.269531 -14.960938 L 12.964844 -25.441406 C 13.507812 -26.894531 14.71875 -27.804688 15.691406 -27.804688 C 16.902344 -27.804688 17.507812 -27.078125 17.507812 -26.046875 C 17.507812 -25.382812 17.265625 -24.65625 16.839844 -23.808594 C 16.539062 -23.199219 16.355469 -22.59375 16.355469 -21.988281 C 16.355469 -19.871094 18.355469 -18.234375 20.476562 -18.234375 C 22.230469 -18.234375 24.109375 -19.324219 25.199219 -22.109375 C 25.804688 -23.746094 26.046875 -25.199219 26.046875 -26.59375 C 26.046875 -32.289062 21.324219 -35.558594 16.113281 -35.558594 C 11.328125 -35.558594 6.179688 -32.773438 4 -26.410156 L 0.546875 -16.234375 C 0.0625 -14.78125 -0.183594 -13.328125 -0.183594 -11.996094 C -0.183594 -5.027344 5.875 0 14.78125 0 C 23.746094 0 32.589844 -5.089844 36.46875 -16.113281 C 36.648438 -16.539062 36.710938 -16.960938 36.710938 -17.324219 C 36.710938 -19.261719 34.832031 -20.476562 32.953125 -20.476562 C 31.441406 -20.476562 29.925781 -19.75 29.320312 -17.992188 Z M 29.320312 -17.992188 "/></g></g></g><g fill="#59310c" fill-opacity="1"><g transform="translate(219.759768, 165.012008)"><g><path d="M 34.527344 -17.566406 C 31.863281 -10.296875 28.410156 -7.207031 25.683594 -7.207031 C 24.535156 -7.207031 23.808594 -7.875 23.808594 -8.785156 C 23.808594 -9.027344 23.867188 -9.328125 23.988281 -9.570312 L 28.957031 -23.6875 C 29.378906 -24.835938 29.5 -25.925781 29.5 -26.957031 C 29.5 -31.804688 25.683594 -35.558594 20.777344 -35.558594 C 19.324219 -35.558594 18.171875 -35.316406 16.902344 -34.769531 L 20.71875 -45.917969 C 21.019531 -46.886719 21.324219 -47.796875 21.324219 -48.582031 C 21.324219 -51.128906 19.324219 -52.582031 17.324219 -52.582031 C 14.960938 -52.582031 13.507812 -51.1875 12.359375 -47.976562 L -2.179688 -6.785156 C -2.484375 -5.9375 -2.605469 -5.148438 -2.605469 -4.421875 C -2.605469 -1.695312 -0.605469 0 1.453125 0 C 3.210938 0 5.027344 -1.089844 5.9375 -3.632812 L 13.265625 -24.351562 C 14.539062 -26.652344 16.597656 -28.410156 18.476562 -28.410156 C 19.6875 -28.410156 20.535156 -27.503906 20.535156 -26.410156 C 20.535156 -26.046875 20.476562 -25.683594 20.292969 -25.320312 L 15.871094 -12.660156 C 15.386719 -11.207031 15.144531 -9.875 15.144531 -8.664062 C 15.144531 -2.96875 19.992188 0 25.140625 0 C 30.894531 0 37.496094 -3.574219 41.859375 -16.175781 C 41.980469 -16.597656 42.039062 -16.960938 42.039062 -17.324219 C 42.039062 -19.203125 40.222656 -20.414062 38.285156 -20.414062 C 36.769531 -20.414062 35.136719 -19.566406 34.527344 -17.566406 Z M 34.527344 -17.566406 "/></g></g></g><g fill="#59310c" fill-opacity="1"><g transform="translate(252.226464, 165.012008)"><g><path d="M 16.296875 -41.132812 C 19.019531 -41.132812 21.261719 -43.375 21.261719 -46.160156 C 21.261719 -48.886719 19.019531 -51.066406 16.296875 -51.066406 C 13.570312 -51.066406 11.328125 -48.886719 11.328125 -46.160156 C 11.328125 -43.375 13.570312 -41.132812 16.296875 -41.132812 Z M 8.117188 -10.238281 L 14.78125 -29.257812 C 15.023438 -30.046875 15.324219 -30.894531 15.324219 -31.5 C 15.324219 -34.164062 13.328125 -35.558594 11.265625 -35.558594 C 9.390625 -35.558594 7.390625 -34.226562 6.421875 -31.378906 C 4.484375 -25.683594 1.9375 -18.476562 0 -12.84375 C -0.363281 -11.628906 -0.847656 -9.996094 -0.847656 -8.964844 C -0.847656 -3.269531 3.875 0 9.449219 0 C 15.386719 0 21.929688 -3.632812 26.167969 -16.175781 C 26.289062 -16.539062 26.351562 -16.902344 26.351562 -17.265625 C 26.351562 -19.140625 24.535156 -20.292969 22.714844 -20.292969 C 21.082031 -20.292969 19.445312 -19.445312 18.71875 -17.566406 C 15.871094 -9.691406 12.660156 -7.207031 10.238281 -7.207031 C 8.84375 -7.207031 7.9375 -8.117188 7.9375 -9.269531 C 7.9375 -9.570312 7.996094 -9.875 8.117188 -10.238281 Z M 8.117188 -10.238281 "/></g></g></g><g clip-path="url(#169aff63ab)"><g clip-path="url(#0ca911a81a)"><g clip-path="url(#a5d1b6afb7)"><path fill="#59310c" d="M 260.996094 104.433594 L 282.953125 111.21875 L 277.027344 130.402344 L 255.066406 123.617188 Z M 260.996094 104.433594 " fill-opacity="1" fill-rule="nonzero"/></g></g></g><g clip-path="url(#ed173fb90a)"><path fill="#59310c" d="M 95.988281 148.300781 C 95.988281 148.734375 95.90625 149.152344 95.738281 149.550781 C 95.574219 149.953125 95.335938 150.308594 95.027344 150.617188 C 94.722656 150.921875 94.367188 151.160156 93.964844 151.324219 C 93.566406 151.492188 93.148438 151.574219 92.714844 151.574219 C 92.277344 151.574219 91.859375 151.492188 91.460938 151.324219 C 91.058594 151.160156 90.703125 150.921875 90.398438 150.617188 C 90.089844 150.308594 89.851562 149.953125 89.6875 149.550781 C 89.519531 149.152344 89.4375 148.734375 89.4375 148.300781 C 89.4375 147.863281 89.519531 147.445312 89.6875 147.046875 C 89.851562 146.644531 90.089844 146.289062 90.398438 145.984375 C 90.703125 145.675781 91.058594 145.4375 91.460938 145.273438 C 91.859375 145.105469 92.277344 145.023438 92.714844 145.023438 C 93.148438 145.023438 93.566406 145.105469 93.964844 145.273438 C 94.367188 145.4375 94.722656 145.675781 95.027344 145.984375 C 95.335938 146.289062 95.574219 146.644531 95.738281 147.046875 C 95.90625 147.445312 95.988281 147.863281 95.988281 148.300781 Z M 95.988281 148.300781 " fill-opacity="1" fill-rule="nonzero"/></g><g fill="#b26219" fill-opacity="1"><g transform="translate(95.998585, 230.072454)"><g><path d="M 12.78125 -47.917969 C -1.574219 -6.542969 -1.636719 -6.722656 -1.757812 -6.179688 C -1.9375 -5.511719 -2 -4.90625 -2 -4.363281 C -2 -1.515625 0 0 2.179688 0 C 4.300781 0 6.480469 -1.515625 7.570312 -4.605469 L 15.023438 -26.167969 C 15.871094 -24.292969 17.75 -23.625 19.628906 -23.625 C 20.960938 -23.625 22.292969 -23.988281 23.199219 -24.472656 C 23.566406 -24.65625 23.867188 -24.714844 24.109375 -24.714844 C 25.261719 -24.714844 25.5625 -23.261719 25.5625 -22.292969 C 25.5625 -21.503906 25.382812 -20.597656 25.019531 -19.628906 L 22.714844 -13.328125 C 22.171875 -11.753906 21.867188 -10.238281 21.867188 -8.964844 C 21.867188 -3.210938 26.53125 0 32.167969 0 C 38.222656 0 45.433594 -3.875 49.308594 -15.933594 C 49.429688 -16.355469 49.492188 -16.71875 49.492188 -17.082031 C 49.492188 -18.960938 47.855469 -19.992188 46.097656 -19.992188 C 44.402344 -19.992188 42.585938 -19.082031 41.859375 -17.023438 C 39.132812 -9.632812 35.800781 -7.816406 33.316406 -7.816406 C 32.347656 -7.816406 31.621094 -8.179688 31.621094 -9.269531 C 31.621094 -9.996094 31.804688 -11.023438 32.289062 -12.238281 L 35.257812 -20.171875 C 35.800781 -21.503906 35.984375 -22.835938 35.984375 -24.050781 C 35.984375 -26.773438 34.890625 -29.015625 33.074219 -30.589844 C 34.953125 -31.984375 36.46875 -33.558594 43.070312 -45.554688 C 43.738281 -46.765625 43.980469 -47.796875 43.980469 -48.703125 C 43.980469 -51.128906 42.039062 -52.519531 39.921875 -52.519531 C 38.042969 -52.519531 36.105469 -51.550781 34.953125 -49.429688 C 27.925781 -36.769531 26.714844 -34.832031 26.167969 -34.40625 C 25.019531 -34.710938 23.808594 -34.832031 22.714844 -34.832031 C 20.597656 -34.832031 18.65625 -34.347656 17.507812 -33.4375 L 21.929688 -45.675781 C 22.230469 -46.582031 22.351562 -47.371094 22.351562 -48.160156 C 22.351562 -50.945312 20.355469 -52.519531 18.171875 -52.519531 C 16.054688 -52.519531 13.691406 -51.066406 12.78125 -47.917969 Z M 12.78125 -47.917969 "/></g></g></g><g fill="#b26219" fill-opacity="1"><g transform="translate(135.97624, 230.072454)"><g><path d="M 37.980469 -20.476562 C 36.285156 -20.476562 34.40625 -19.445312 33.679688 -17.144531 C 31.320312 -9.691406 27.503906 -7.207031 24.777344 -7.207031 C 23.746094 -7.207031 23.140625 -7.753906 23.140625 -8.722656 C 23.140625 -9.207031 23.261719 -9.8125 23.445312 -10.480469 L 30.226562 -30.105469 C 30.46875 -30.832031 30.589844 -31.5 30.589844 -32.105469 C 30.589844 -34.769531 28.410156 -36.164062 26.167969 -36.164062 C 24.472656 -36.164062 22.714844 -35.378906 21.746094 -33.863281 C 20.476562 -34.648438 18.113281 -35.558594 15.023438 -35.558594 C 11.023438 -35.558594 6.664062 -33.378906 5.027344 -28.714844 L -0.667969 -12.417969 C -1.03125 -11.328125 -1.273438 -10.238281 -1.273438 -9.148438 C -1.273438 -4.121094 2.785156 0 8.117188 0 C 10.964844 0 13.871094 -1.273438 16.113281 -3.269531 C 18.050781 -0.484375 22.351562 0 24.171875 0 C 29.199219 0 35.921875 -2.542969 39.800781 -12.359375 C 40.648438 -14.71875 41.3125 -16.234375 41.3125 -17.324219 C 41.3125 -19.382812 39.738281 -20.476562 37.980469 -20.476562 Z M 17.992188 -21.082031 L 15.082031 -12.054688 C 13.8125 -8.117188 11.507812 -7.207031 10.238281 -7.207031 C 8.90625 -7.207031 8.238281 -8.058594 8.238281 -9.449219 C 8.238281 -10.238281 8.421875 -10.964844 8.601562 -11.507812 L 12.480469 -23.6875 C 13.628906 -27.382812 15.324219 -27.867188 16.296875 -27.867188 C 17.445312 -27.867188 18.71875 -26.714844 18.71875 -24.65625 C 18.71875 -23.746094 18.476562 -22.59375 17.992188 -21.082031 Z M 17.992188 -21.082031 "/></g></g></g><g fill="#b26219" fill-opacity="1"><g transform="translate(167.77666, 230.072454)"><g><path d="M 21.625 -17.082031 C 19.203125 -10.417969 15.386719 -7.207031 11.875 -7.207031 C 9.691406 -7.207031 8.359375 -8.542969 8.359375 -10.175781 C 8.359375 -10.601562 8.480469 -11.085938 8.601562 -11.507812 L 14.539062 -28.410156 L 18.476562 -28.410156 C 21.566406 -28.410156 23.199219 -30.589844 23.199219 -32.589844 C 23.199219 -34.164062 22.171875 -35.558594 19.871094 -35.558594 L 17.144531 -35.558594 L 21.203125 -47.371094 C 21.324219 -47.796875 21.382812 -48.160156 21.382812 -48.523438 C 21.382812 -50.765625 19.808594 -52.582031 17.144531 -52.582031 C 15.144531 -52.582031 13.449219 -51.1875 12.722656 -49.066406 L 7.875 -35.558594 L 5.332031 -35.558594 C 2.058594 -35.558594 0.667969 -33.5 0.667969 -31.5625 C 0.667969 -29.863281 1.695312 -28.410156 3.332031 -28.410156 L 5.332031 -28.410156 L 0.242188 -13.8125 L 0.242188 -13.871094 C -0.242188 -12.417969 -0.484375 -11.085938 -0.484375 -9.8125 C -0.484375 -3.632812 5.027344 0 11.265625 0 C 19.019531 0 25.503906 -5.753906 28.957031 -15.691406 C 29.078125 -16.113281 29.199219 -16.539062 29.199219 -16.902344 C 29.199219 -18.71875 27.441406 -19.871094 25.5625 -19.871094 C 24.050781 -19.871094 22.351562 -19.019531 21.625 -17.082031 Z M 21.625 -17.082031 "/></g></g></g><g fill="#b26219" fill-opacity="1"><g transform="translate(187.583762, 230.072454)"><g><path d="M 29.320312 -17.992188 C 26.230469 -10.175781 20.355469 -7.269531 15.75 -7.269531 C 11.570312 -7.269531 8.90625 -9.691406 8.90625 -12.78125 C 8.90625 -13.449219 9.027344 -14.175781 9.269531 -14.960938 L 12.964844 -25.441406 C 13.507812 -26.894531 14.71875 -27.804688 15.691406 -27.804688 C 16.902344 -27.804688 17.507812 -27.078125 17.507812 -26.046875 C 17.507812 -25.382812 17.265625 -24.65625 16.839844 -23.808594 C 16.539062 -23.199219 16.355469 -22.59375 16.355469 -21.988281 C 16.355469 -19.871094 18.355469 -18.234375 20.476562 -18.234375 C 22.230469 -18.234375 24.109375 -19.324219 25.199219 -22.109375 C 25.804688 -23.746094 26.046875 -25.199219 26.046875 -26.59375 C 26.046875 -32.289062 21.324219 -35.558594 16.113281 -35.558594 C 11.328125 -35.558594 6.179688 -32.773438 4 -26.410156 L 0.546875 -16.234375 C 0.0625 -14.78125 -0.183594 -13.328125 -0.183594 -11.996094 C -0.183594 -5.027344 5.875 0 14.78125 0 C 23.746094 0 32.589844 -5.089844 36.46875 -16.113281 C 36.648438 -16.539062 36.710938 -16.960938 36.710938 -17.324219 C 36.710938 -19.261719 34.832031 -20.476562 32.953125 -20.476562 C 31.441406 -20.476562 29.925781 -19.75 29.320312 -17.992188 Z M 29.320312 -17.992188 "/></g></g></g><g fill="#b26219" fill-opacity="1"><g transform="translate(214.659537, 230.072454)"><g><path d="M 34.527344 -17.566406 C 31.863281 -10.296875 28.410156 -7.207031 25.683594 -7.207031 C 24.535156 -7.207031 23.808594 -7.875 23.808594 -8.785156 C 23.808594 -9.027344 23.867188 -9.328125 23.988281 -9.570312 L 28.957031 -23.6875 C 29.378906 -24.835938 29.5 -25.925781 29.5 -26.957031 C 29.5 -31.804688 25.683594 -35.558594 20.777344 -35.558594 C 19.324219 -35.558594 18.171875 -35.316406 16.902344 -34.769531 L 20.71875 -45.917969 C 21.019531 -46.886719 21.324219 -47.796875 21.324219 -48.582031 C 21.324219 -51.128906 19.324219 -52.582031 17.324219 -52.582031 C 14.960938 -52.582031 13.507812 -51.1875 12.359375 -47.976562 L -2.179688 -6.785156 C -2.484375 -5.9375 -2.605469 -5.148438 -2.605469 -4.421875 C -2.605469 -1.695312 -0.605469 0 1.453125 0 C 3.210938 0 5.027344 -1.089844 5.9375 -3.632812 L 13.265625 -24.351562 C 14.539062 -26.652344 16.597656 -28.410156 18.476562 -28.410156 C 19.6875 -28.410156 20.535156 -27.503906 20.535156 -26.410156 C 20.535156 -26.046875 20.476562 -25.683594 20.292969 -25.320312 L 15.871094 -12.660156 C 15.386719 -11.207031 15.144531 -9.875 15.144531 -8.664062 C 15.144531 -2.96875 19.992188 0 25.140625 0 C 30.894531 0 37.496094 -3.574219 41.859375 -16.175781 C 41.980469 -16.597656 42.039062 -16.960938 42.039062 -17.324219 C 42.039062 -19.203125 40.222656 -20.414062 38.285156 -20.414062 C 36.769531 -20.414062 35.136719 -19.566406 34.527344 -17.566406 Z M 34.527344 -17.566406 "/></g></g></g><g fill="#b26219" fill-opacity="1"><g transform="translate(247.126233, 230.072454)"><g><path d="M 37.980469 -20.476562 C 36.285156 -20.476562 34.40625 -19.445312 33.679688 -17.144531 C 31.320312 -9.691406 27.503906 -7.207031 24.777344 -7.207031 C 23.746094 -7.207031 23.140625 -7.753906 23.140625 -8.722656 C 23.140625 -9.207031 23.261719 -9.8125 23.445312 -10.480469 L 30.226562 -30.105469 C 30.46875 -30.832031 30.589844 -31.5 30.589844 -32.105469 C 30.589844 -34.769531 28.410156 -36.164062 26.167969 -36.164062 C 24.472656 -36.164062 22.714844 -35.378906 21.746094 -33.863281 C 20.476562 -34.648438 18.113281 -35.558594 15.023438 -35.558594 C 11.023438 -35.558594 6.664062 -33.378906 5.027344 -28.714844 L -0.667969 -12.417969 C -1.03125 -11.328125 -1.273438 -10.238281 -1.273438 -9.148438 C -1.273438 -4.121094 2.785156 0 8.117188 0 C 10.964844 0 13.871094 -1.273438 16.113281 -3.269531 C 18.050781 -0.484375 22.351562 0 24.171875 0 C 29.199219 0 35.921875 -2.542969 39.800781 -12.359375 C 40.648438 -14.71875 41.3125 -16.234375 41.3125 -17.324219 C 41.3125 -19.382812 39.738281 -20.476562 37.980469 -20.476562 Z M 17.992188 -21.082031 L 15.082031 -12.054688 C 13.8125 -8.117188 11.507812 -7.207031 10.238281 -7.207031 C 8.90625 -7.207031 8.238281 -8.058594 8.238281 -9.449219 C 8.238281 -10.238281 8.421875 -10.964844 8.601562 -11.507812 L 12.480469 -23.6875 C 13.628906 -27.382812 15.324219 -27.867188 16.296875 -27.867188 C 17.445312 -27.867188 18.71875 -26.714844 18.71875 -24.65625 C 18.71875 -23.746094 18.476562 -22.59375 17.992188 -21.082031 Z M 17.992188 -21.082031 "/></g></g></g><g clip-path="url(#10a58d0baf)"><path fill="#59310c" d="M 157.425781 117.40625 C 157.425781 117.839844 157.339844 118.257812 157.175781 118.660156 C 157.007812 119.0625 156.773438 119.417969 156.464844 119.722656 C 156.15625 120.03125 155.804688 120.265625 155.402344 120.433594 C 155 120.601562 154.582031 120.683594 154.148438 120.683594 C 153.714844 120.683594 153.296875 120.601562 152.894531 120.433594 C 152.496094 120.265625 152.140625 120.03125 151.832031 119.722656 C 151.527344 119.417969 151.289062 119.0625 151.125 118.660156 C 150.957031 118.257812 150.875 117.839844 150.875 117.40625 C 150.875 116.972656 150.957031 116.554688 151.125 116.152344 C 151.289062 115.753906 151.527344 115.398438 151.832031 115.089844 C 152.140625 114.785156 152.496094 114.546875 152.894531 114.382812 C 153.296875 114.214844 153.714844 114.132812 154.148438 114.132812 C 154.582031 114.132812 155 114.214844 155.402344 114.382812 C 155.804688 114.546875 156.15625 114.785156 156.464844 115.089844 C 156.773438 115.398438 157.007812 115.753906 157.175781 116.152344 C 157.339844 116.554688 157.425781 116.972656 157.425781 117.40625 Z M 157.425781 117.40625 " fill-opacity="1" fill-rule="nonzero"/></g><g clip-path="url(#6295eda2f7)"><path fill="#59310c" d="M 285.550781 164.683594 C 285.550781 165.121094 285.46875 165.539062 285.304688 165.9375 C 285.136719 166.339844 284.898438 166.695312 284.59375 167 C 284.285156 167.308594 283.929688 167.546875 283.53125 167.710938 C 283.128906 167.878906 282.710938 167.960938 282.277344 167.960938 C 281.84375 167.960938 281.425781 167.878906 281.023438 167.710938 C 280.621094 167.546875 280.269531 167.308594 279.960938 167 C 279.652344 166.695312 279.417969 166.339844 279.25 165.9375 C 279.085938 165.539062 279 165.121094 279 164.683594 C 279 164.25 279.085938 163.832031 279.25 163.433594 C 279.417969 163.03125 279.652344 162.675781 279.960938 162.371094 C 280.269531 162.0625 280.621094 161.824219 281.023438 161.660156 C 281.425781 161.492188 281.84375 161.410156 282.277344 161.410156 C 282.710938 161.410156 283.128906 161.492188 283.53125 161.660156 C 283.929688 161.824219 284.285156 162.0625 284.59375 162.371094 C 284.898438 162.675781 285.136719 163.03125 285.304688 163.433594 C 285.46875 163.832031 285.550781 164.25 285.550781 164.683594 Z M 285.550781 164.683594 " fill-opacity="1" fill-rule="nonzero"/></g><g clip-path="url(#ffa81a8bd9)"><path fill="#b26219" d="M 289.472656 199.808594 C 289.472656 200.242188 289.390625 200.660156 289.222656 201.058594 C 289.054688 201.460938 288.820312 201.816406 288.511719 202.121094 C 288.207031 202.429688 287.851562 202.667969 287.449219 202.832031 C 287.046875 203 286.628906 203.082031 286.195312 203.082031 C 285.761719 203.082031 285.34375 203 284.941406 202.832031 C 284.542969 202.667969 284.1875 202.429688 283.878906 202.121094 C 283.574219 201.816406 283.335938 201.460938 283.171875 201.058594 C 283.003906 200.660156 282.921875 200.242188 282.921875 199.808594 C 282.921875 199.371094 283.003906 198.953125 283.171875 198.554688 C 283.335938 198.152344 283.574219 197.796875 283.878906 197.492188 C 284.1875 197.183594 284.542969 196.945312 284.941406 196.78125 C 285.34375 196.613281 285.761719 196.53125 286.195312 196.53125 C 286.628906 196.53125 287.046875 196.613281 287.449219 196.78125 C 287.851562 196.945312 288.207031 197.183594 288.511719 197.492188 C 288.820312 197.796875 289.054688 198.152344 289.222656 198.554688 C 289.390625 198.953125 289.472656 199.371094 289.472656 199.808594 Z M 289.472656 199.808594 " fill-opacity="1" fill-rule="nonzero"/></g><g clip-path="url(#7a412771d2)"><path fill="#b26219" d="M 251.839844 234.929688 C 251.839844 235.363281 251.757812 235.78125 251.59375 236.179688 C 251.425781 236.582031 251.191406 236.9375 250.882812 237.246094 C 250.574219 237.550781 250.222656 237.789062 249.820312 237.953125 C 249.417969 238.121094 249 238.203125 248.566406 238.203125 C 248.132812 238.203125 247.714844 238.121094 247.3125 237.953125 C 246.910156 237.789062 246.558594 237.550781 246.25 237.246094 C 245.941406 236.9375 245.707031 236.582031 245.539062 236.179688 C 245.375 235.78125 245.289062 235.363281 245.289062 234.929688 C 245.289062 234.492188 245.375 234.074219 245.539062 233.675781 C 245.707031 233.273438 245.941406 232.917969 246.25 232.613281 C 246.558594 232.304688 246.910156 232.066406 247.3125 231.902344 C 247.714844 231.734375 248.132812 231.652344 248.566406 231.652344 C 249 231.652344 249.417969 231.734375 249.820312 231.902344 C 250.222656 232.066406 250.574219 232.304688 250.882812 232.613281 C 251.191406 232.917969 251.425781 233.273438 251.59375 233.675781 C 251.757812 234.074219 251.839844 234.492188 251.839844 234.929688 Z M 251.839844 234.929688 " fill-opacity="1" fill-rule="nonzero"/></g><g clip-path="url(#1d6ada5a63)"><path fill="#b26219" d="M 198.875 187.496094 C 198.875 187.929688 198.792969 188.347656 198.628906 188.75 C 198.460938 189.148438 198.222656 189.503906 197.917969 189.8125 C 197.609375 190.117188 197.257812 190.355469 196.855469 190.519531 C 196.453125 190.6875 196.035156 190.769531 195.601562 190.769531 C 195.167969 190.769531 194.75 190.6875 194.347656 190.519531 C 193.945312 190.355469 193.59375 190.117188 193.285156 189.8125 C 192.976562 189.503906 192.742188 189.148438 192.574219 188.75 C 192.410156 188.347656 192.324219 187.929688 192.324219 187.496094 C 192.324219 187.058594 192.410156 186.644531 192.574219 186.242188 C 192.742188 185.839844 192.976562 185.484375 193.285156 185.179688 C 193.59375 184.871094 193.945312 184.636719 194.347656 184.46875 C 194.75 184.300781 195.167969 184.21875 195.601562 184.21875 C 196.035156 184.21875 196.453125 184.300781 196.855469 184.46875 C 197.257812 184.636719 197.609375 184.871094 197.917969 185.179688 C 198.222656 185.484375 198.460938 185.839844 198.628906 186.242188 C 198.792969 186.644531 198.875 187.058594 198.875 187.496094 Z M 198.875 187.496094 " fill-opacity="1" fill-rule="nonzero"/></g><g clip-path="url(#53f72ec94d)"><path fill="#b26219" d="M 117.269531 234.929688 C 117.269531 235.363281 117.183594 235.78125 117.019531 236.179688 C 116.851562 236.582031 116.617188 236.9375 116.308594 237.246094 C 116.003906 237.550781 115.648438 237.789062 115.246094 237.953125 C 114.84375 238.121094 114.425781 238.203125 113.992188 238.203125 C 113.558594 238.203125 113.140625 238.121094 112.738281 237.953125 C 112.339844 237.789062 111.984375 237.550781 111.675781 237.246094 C 111.371094 236.9375 111.132812 236.582031 110.96875 236.179688 C 110.800781 235.78125 110.71875 235.363281 110.71875 234.929688 C 110.71875 234.492188 110.800781 234.074219 110.96875 233.675781 C 111.132812 233.273438 111.371094 232.917969 111.675781 232.613281 C 111.984375 232.304688 112.339844 232.066406 112.738281 231.902344 C 113.140625 231.734375 113.558594 231.652344 113.992188 231.652344 C 114.425781 231.652344 114.84375 231.734375 115.246094 231.902344 C 115.648438 232.066406 116.003906 232.304688 116.308594 232.613281 C 116.617188 232.917969 116.851562 233.273438 117.019531 233.675781 C 117.183594 234.074219 117.269531 234.492188 117.269531 234.929688 Z M 117.269531 234.929688 " fill-opacity="1" fill-rule="nonzero"/></g></svg>